<svg xmlns="http://www.w3.org/2000/svg" fill="none" viewBox="0 0 24 24">
  <path stroke="currentColor" stroke-linecap="round" stroke-linejoin="round" stroke-width="1.5" d="M5.4 5.9C4 7.4 3 9.5 3 12.2c0 2 .7 3.9 1.8 5.4C6.1 19.3 8 20.3 9 20.7V20s0-1.6.9-3c-2-.1-3.6-2-3.6-4.2 0-.8.3-1.5.8-2.1l.1-1.9c0-.5.5-.8 1-.7l2.1.8c.6-.1 1.2-.2 1.9-.2s1.3.1 1.9.2l1.8-.9c.5-.2 1 .2 1 .7l.1 1.9c.5.6.8 1.4.8 2.1 0 2.2-1.6 4-3.6 4.2.9 1.4.9 3 .9 3v.7c1-.4 2.9-1.4 4.2-3.1 1.1-1.4 1.8-3.4 1.8-5.4 0-2.7-1-4.8-2.4-6.3C16.8 3.9 14.2 3 12 3s-4.8.9-6.6 2.9v0Z" clip-rule="evenodd"/>
</svg>
