<svg xmlns="http://www.w3.org/2000/svg" fill="none" viewBox="0 0 24 24">
  <path stroke="currentColor" stroke-linecap="round" stroke-linejoin="round" stroke-width="1.5" d="M12 22c5.523 0 10-4.477 10-10S17.523 2 12 2 2 6.477 2 12s4.477 10 10 10Z" clip-rule="evenodd"/>
  <path stroke="currentColor" stroke-linecap="round" stroke-linejoin="round" stroke-width="1.5" d="M9.27 6.547h5.46a2.724 2.724 0 0 1 2.724 2.725v5.46a2.724 2.724 0 0 1-2.725 2.724h-5.46a2.724 2.724 0 0 1-2.724-2.725V9.27A2.725 2.725 0 0 1 9.27 6.548Z" clip-rule="evenodd"/>
  <path stroke="currentColor" stroke-linecap="round" stroke-linejoin="round" stroke-width="1.5" d="M15 8.95a.05.05 0 0 0-.05.05c0 .027.022.05.05.05a.05.05 0 0 0 .05-.05.05.05 0 0 0-.05-.05m-1.586 1.636a2 2 0 1 1-2.828 2.828 2 2 0 0 1 2.828-2.828"/>
</svg>
