<svg xmlns="http://www.w3.org/2000/svg" fill="none" viewBox="0 0 24 24">
  <path stroke="currentColor" stroke-linecap="round" stroke-linejoin="round" stroke-width="1.5" d="M8.648 10.57v4.91m3.272 0v-2.865c0-1.13.915-2.045 2.045-2.045v0c1.13 0 2.045.915 2.045 2.045v2.864M8.647 7.607a.205.205 0 1 0 .206.205.206.206 0 0 0-.206-.205"/>
  <path stroke="currentColor" stroke-linecap="round" stroke-linejoin="round" stroke-width="1.5" d="M19.07 4.929c3.906 3.905 3.906 10.237 0 14.142-3.904 3.905-10.236 3.905-14.141 0-3.905-3.905-3.905-10.237 0-14.142 3.905-3.905 10.237-3.905 14.142 0"/>
</svg>
